<svg xmlns="http://www.w3.org/2000/svg" width="76" height="32.989" viewBox="0 0 76 32.989"><defs><style>.a{fill:#fff;}</style></defs><path class="a" d="M17.161,26.013a75.761,75.761,0,0,1-9.3.528H6.973A6.809,6.809,0,0,1,.528,21.519,20.842,20.842,0,0,1,0,17.2a19.238,19.238,0,0,1,.544-4.318A6.681,6.681,0,0,1,6.965,7.877h.9c1.719,0,3.447,0,5.789.192V3.51A3.51,3.51,0,0,1,17.161,0h0ZM13.65,11.107C11.4,10.979,9.676,10.9,7.861,10.9a4.471,4.471,0,0,0-4.4,3.622,26.9,26.9,0,0,0-.216,2.687,26.167,26.167,0,0,0,.216,2.679A4.433,4.433,0,0,0,7.853,23.5c1.823,0,4.35-.048,5.789-.184V11.107Z"/><g transform="translate(20.399 7.533)"><path class="a" d="M25.51,19.056q0-9.632,9.172-9.636t9.172,9.636q0,9.62-9.172,9.612Q25.554,28.668,25.51,19.056Zm9.18,6.637c3.854,0,5.782-2.071,5.782-6.709,0-4.542-1.927-6.605-5.782-6.605s-5.781,2.063-5.781,6.605C28.909,23.614,30.836,25.693,34.69,25.693Z" transform="translate(-25.51 -9.42)"/></g><g transform="translate(41.99 1.199)"><path class="a" d="M55.909,1.5V4.715h-3.4A3.215,3.215,0,0,1,55.725,1.5Zm0,6.333V27.1h-3.4V7.833Z" transform="translate(-52.51 -1.5)"/></g><g transform="translate(48.627 4.414)"><path class="a" d="M60.81,5.52h.272a3.15,3.15,0,0,1,3.151,3.119h4.654v2.751H64.209V22.457q0,2.7,2.327,2.695h2.351V27.9H65.656q-4.846,0-4.846-5.19V5.52Z" transform="translate(-60.81 -5.52)"/></g><g transform="translate(59.942 7.512)"><path class="a" d="M74.96,12.166V9.415s2.431-.28,3.311,1.207c1.151,1.967,4.686,13.834,4.686,13.834l5.63-15.041h0a2.432,2.432,0,0,1,2.255,3.335l-6.653,16.5a12.046,12.046,0,0,1-3.47,5A2.8,2.8,0,0,1,76.5,33.4h0a9.254,9.254,0,0,0,4.742-4.718C81.237,28.686,76.815,12.142,74.96,12.166Z" transform="translate(-74.96 -9.394)"/></g></svg>